<svg width="132" height="132" viewBox="0 0 132 132" fill="none" xmlns="http://www.w3.org/2000/svg">
<path d="M127.326 47.8144V84.5122C127.326 99.803 124.268 110.507 117.418 117.418L78.3958 78.3959L125.675 31.1168C126.776 35.9487 127.326 41.4534 127.326 47.8144Z" stroke="#FC5F2F" stroke-width="9.17448" stroke-linecap="round" stroke-linejoin="round"/>
<path d="M5 47.8143C5 17.2326 17.2326 5 47.8143 5H84.5122C108.733 5 121.455 12.7066 125.675 31.1167L31.1166 125.675C12.7065 121.455 5 108.733 5 84.5122V71.9126" stroke="#FC5F2F" stroke-width="9.17448" stroke-linecap="round" stroke-linejoin="round"/>
<path d="M117.415 117.418C110.503 124.268 99.7999 127.326 84.5091 127.326H47.8114C41.4504 127.326 35.9457 126.776 31.1138 125.675L78.3928 78.3959L117.415 117.418Z" stroke="#FC5F2F" stroke-width="9.17448" stroke-linecap="round" stroke-linejoin="round"/>
<path d="M30.9288 41.5754C35.0879 23.6546 61.9997 23.6546 66.1588 41.5754C68.5442 52.0955 61.9386 61.0255 56.1281 66.5302C51.9077 70.5669 45.241 70.5669 40.9596 66.5302C35.1491 61.0255 28.4822 52.0955 30.9288 41.5754Z" stroke="#FC5F2F" stroke-width="9.17448"/>
<path d="M48.3906 45.979H48.4455" stroke="#FC5F2F" stroke-width="12.2326" stroke-linecap="round" stroke-linejoin="round"/>
</svg>
