<svg width="77" height="19" viewBox="0 0 77 19" fill="none" xmlns="http://www.w3.org/2000/svg">
<path d="M20.466 9.6C20.466 14.7 16.366 18.8 10.366 18.8C4.26602 18.8 0.166016 14.7 0.166016 9.6C0.166016 4.3 4.26602 0.2 10.366 0.2C16.366 0.2 20.466 4.3 20.466 9.6ZM48.6887 9.6C48.6887 14.7 44.5887 18.8 38.5887 18.8C32.4887 18.8 28.3887 14.7 28.3887 9.6C28.3887 4.3 32.4887 0.2 38.5887 0.2C44.5887 0.2 48.6887 4.3 48.6887 9.6ZM76.9113 9.6C76.9113 14.7 72.8113 18.8 66.8113 18.8C60.7113 18.8 56.6113 14.7 56.6113 9.6C56.6113 4.3 60.7113 0.2 66.8113 0.2C72.8113 0.2 76.9113 4.3 76.9113 9.6Z" fill="black"/>
</svg>
