<svg width="41" height="41" viewBox="0 0 41 41" fill="none" xmlns="http://www.w3.org/2000/svg">
<path d="M40.7171 20.802C40.7171 9.78927 31.743 0.815186 20.7303 0.815186C9.71755 0.815186 0.743469 9.78927 0.743469 20.802C0.743469 26.5982 3.24182 31.8147 7.19921 35.4723C7.19921 35.4923 7.19921 35.4923 7.17922 35.5123C7.37909 35.7122 7.61893 35.8721 7.8188 36.0519C7.93872 36.1519 8.03866 36.2518 8.15858 36.3318C8.51834 36.6316 8.91808 36.9114 9.29783 37.1912C9.43774 37.2911 9.55766 37.3711 9.69756 37.471C10.0773 37.7308 10.477 37.9707 10.8968 38.1905C11.0367 38.2705 11.1966 38.3704 11.3365 38.4504C11.7362 38.6702 12.1559 38.8701 12.5957 39.05C12.7555 39.1299 12.9154 39.2099 13.0753 39.2698C13.515 39.4497 13.9548 39.6096 14.3945 39.7495C14.5544 39.8095 14.7143 39.8694 14.8741 39.9094C15.3538 40.0493 15.8335 40.1692 16.3132 40.2892C16.4531 40.3291 16.593 40.3691 16.7529 40.3891C17.3125 40.509 17.8722 40.589 18.4518 40.6489C18.5317 40.6489 18.6117 40.6689 18.6916 40.6889C19.3712 40.7488 20.0507 40.7888 20.7303 40.7888C21.4098 40.7888 22.0894 40.7488 22.749 40.6889C22.8289 40.6889 22.9089 40.6689 22.9888 40.6489C23.5684 40.589 24.128 40.509 24.6877 40.3891C24.8276 40.3691 24.9675 40.3091 25.1274 40.2892C25.6071 40.1692 26.1067 40.0693 26.5664 39.9094C26.7263 39.8494 26.8862 39.7895 27.0461 39.7495C27.4858 39.5896 27.9455 39.4497 28.3653 39.2698C28.5251 39.2099 28.685 39.1299 28.8449 39.05C29.2647 38.8701 29.6844 38.6702 30.1041 38.4504C30.264 38.3704 30.4039 38.2705 30.5438 38.1905C30.9436 37.9507 31.3433 37.7308 31.743 37.471C31.8829 37.3911 32.0029 37.2911 32.1428 37.1912C32.5425 36.9114 32.9222 36.6316 33.282 36.3318C33.4019 36.2318 33.5019 36.1319 33.6218 36.0519C33.8416 35.8721 34.0615 35.6922 34.2614 35.5123C34.2614 35.4923 34.2614 35.4923 34.2414 35.4723C38.2188 31.8147 40.7171 26.5982 40.7171 20.802ZM30.6038 30.7355C25.1873 27.0978 16.3132 27.0978 10.8568 30.7355C9.97738 31.3151 9.25785 31.9946 8.65825 32.7341C5.62025 29.6562 3.74149 25.4389 3.74149 20.802C3.74149 11.4282 11.3565 3.81321 20.7303 3.81321C30.1041 3.81321 37.7191 11.4282 37.7191 20.802C37.7191 25.4389 35.8403 29.6562 32.8023 32.7341C32.2227 31.9946 31.4832 31.3151 30.6038 30.7355Z" fill="#292D32"/>
<path d="M20.7303 10.668C16.593 10.668 13.2352 14.0258 13.2352 18.163C13.2352 22.2204 16.4131 25.5182 20.6304 25.6381H20.8102H20.9501H20.9901C25.0275 25.4982 28.2054 22.2204 28.2253 18.163C28.2253 14.0258 24.8676 10.668 20.7303 10.668Z" fill="#292D32"/>
</svg>
